<svg preserveAspectRatio="none" width="100%" height="100%" overflow="visible" style="display: block;" viewBox="0 0 21.5 19.5" fill="none" xmlns="http://www.w3.org/2000/svg">
<g id="Group 21">
<path id="Vector" d="M6.25 3.75L7.75 0.75H13.75L15.25 3.75H6.25Z" stroke="var(--stroke-0, #999999)" stroke-width="1.5" stroke-linejoin="round"/>
<path id="Vector_2" d="M19.25 3.75H2.25C1.42157 3.75 0.75 4.42157 0.75 5.25V17.25C0.75 18.0784 1.42157 18.75 2.25 18.75H19.25C20.0784 18.75 20.75 18.0784 20.75 17.25V5.25C20.75 4.42157 20.0784 3.75 19.25 3.75Z" stroke="var(--stroke-0, #999999)" stroke-width="1.5" stroke-linejoin="round"/>
<path id="Vector_3" d="M10.75 15.25C12.9592 15.25 14.75 13.4592 14.75 11.25C14.75 9.04085 12.9592 7.25 10.75 7.25C8.54085 7.25 6.75 9.04085 6.75 11.25C6.75 13.4592 8.54085 15.25 10.75 15.25Z" stroke="var(--stroke-0, #999999)" stroke-width="1.5" stroke-linejoin="round"/>
</g>
</svg>
