<svg preserveAspectRatio="none" width="100%" height="100%" overflow="visible" style="display: block;" viewBox="0 0 21.5 20.7243" fill="none" xmlns="http://www.w3.org/2000/svg">
<g id="Group 20">
<path id="Vector" d="M7.8919 19.9742C6.21635 19.4753 4.7249 18.5492 3.54393 17.322C3.9845 16.7999 4.25 16.1252 4.25 15.3886C4.25 13.7317 2.90685 12.3886 1.25 12.3886C1.14977 12.3886 1.0507 12.3935 0.952995 12.4031C0.819895 11.7524 0.75 11.0787 0.75 10.3886C0.75 9.34327 0.910385 8.33542 1.2079 7.38827C1.22191 7.38847 1.23594 7.38857 1.25 7.38857C2.90685 7.38857 4.25 6.04542 4.25 4.38857C4.25 3.91292 4.1393 3.46317 3.9423 3.06357C5.09875 1.98827 6.51025 1.18353 8.07605 0.750088C8.5722 1.72261 9.58335 2.38858 10.75 2.38858C11.9167 2.38858 12.9278 1.72261 13.424 0.750088C14.9898 1.18353 16.4012 1.98827 17.5577 3.06357C17.3607 3.46317 17.25 3.91292 17.25 4.38857C17.25 6.04542 18.5932 7.38857 20.25 7.38857C20.2641 7.38857 20.2781 7.38847 20.2921 7.38827C20.5896 8.33542 20.75 9.34327 20.75 10.3886C20.75 11.0787 20.6801 11.7524 20.547 12.4031C20.4493 12.3935 20.3502 12.3886 20.25 12.3886C18.5932 12.3886 17.25 13.7317 17.25 15.3886C17.25 16.1252 17.5155 16.7999 17.9561 17.322C16.7751 18.5492 15.2836 19.4753 13.6081 19.9742C13.2214 18.7645 12.088 17.8886 10.75 17.8886C9.412 17.8886 8.2786 18.7645 7.8919 19.9742Z" stroke="var(--stroke-0, #999999)" stroke-width="1.5" stroke-linejoin="round"/>
<path id="Vector_2" d="M10.75 13.8885C12.683 13.8885 14.25 12.3215 14.25 10.3885C14.25 8.45552 12.683 6.88852 10.75 6.88852C8.817 6.88852 7.25 8.45552 7.25 10.3885C7.25 12.3215 8.817 13.8885 10.75 13.8885Z" stroke="var(--stroke-0, #999999)" stroke-width="1.5" stroke-linejoin="round"/>
</g>
</svg>
