<svg preserveAspectRatio="none" width="100%" height="100%" overflow="visible" style="display: block;" viewBox="0 0 21.42 23.3261" fill="none" xmlns="http://www.w3.org/2000/svg">
<g id="Group 23">
<path id="Vector" d="M20.4708 14.608C20.6014 13.9644 20.67 13.2983 20.67 12.6161C20.67 7.11534 16.2108 2.65612 10.71 2.65612C5.20924 2.65612 0.75 7.11534 0.75 12.6161C0.75 18.1169 5.20924 22.5761 10.71 22.5761C11.2756 22.5761 11.8302 22.529 12.37 22.4384" stroke="var(--stroke-0, #999999)" stroke-width="1.5" stroke-linecap="round"/>
<path id="Vector_2" d="M2.3834 8.26623C2.80501 9.61398 3.40165 10.3449 4.17325 10.4591C5.33068 10.6303 6.71262 8.53941 7.98946 9.06013C9.26627 9.58082 8.16659 12.8596 10.0025 13.5867C11.8384 14.3137 12.6337 11.2293 14.1963 11.4983C15.759 11.7674 15.8337 13.7147 17.3535 12.8253C18.8732 11.9359 17.3143 11.2193 18.401 9.95066C19.1254 9.10489 19.5719 8.74047 19.7404 8.85739" stroke="var(--stroke-0, #999999)" stroke-width="1.5" stroke-linecap="round"/>
<path id="Vector_3" d="M8.50314 22.177C9.43644 21.2219 9.77244 20.3341 9.51109 19.5134C9.11906 18.2826 8.47241 18.3553 8.19044 17.5943C7.90853 16.8332 8.70498 15.7493 6.93773 14.8226C5.75956 14.2049 4.13961 14.9206 2.07799 16.9699" stroke="var(--stroke-0, #999999)" stroke-width="1.5" stroke-linecap="round"/>
</g>
</svg>
