<svg preserveAspectRatio="none" width="100%" height="100%" overflow="visible" style="display: block;" viewBox="0 0 24.5 23.5" fill="none" xmlns="http://www.w3.org/2000/svg">
<path id="Union" d="M22.75 0C23.7165 0 24.5 0.783502 24.5 1.75V4.75C24.5 5.7165 23.7165 6.5 22.75 6.5H11.75C8.85051 6.5 6.5 8.85051 6.5 11.75C6.5 14.6495 8.85051 17 11.75 17H22.75C23.7165 17 24.5 17.7835 24.5 18.75V21.75C24.5 22.7165 23.7165 23.5 22.75 23.5H11.75C5.26065 23.5 0 18.2393 0 11.75C0 5.26065 5.26065 0 11.75 0H22.75ZM11.75 1.5C6.08908 1.5 1.5 6.08908 1.5 11.75C1.5 17.4109 6.08908 22 11.75 22H18V20.25C18 19.8358 18.3358 19.5 18.75 19.5C19.1642 19.5 19.5 19.8358 19.5 20.25V22H22.75C22.8881 22 23 21.8881 23 21.75V18.75C23 18.6119 22.8881 18.5 22.75 18.5H11.75C8.02208 18.5 5 15.4779 5 11.75C5 8.02208 8.02208 5 11.75 5H18V3.25C18 2.83579 18.3358 2.5 18.75 2.5C19.1642 2.5 19.5 2.83579 19.5 3.25V5H22.75C22.8881 5 23 4.88807 23 4.75V1.75C23 1.61193 22.8881 1.5 22.75 1.5H11.75Z" fill="var(--fill-0, #999999)"/>
</svg>
