<svg preserveAspectRatio="none" width="100%" height="100%" overflow="visible" style="display: block;" viewBox="0 0 17.5 17.5" fill="none" xmlns="http://www.w3.org/2000/svg">
<g id="Group 7">
<path id="Vector" d="M0.75 15.9079V7.48687C0.75 7.02177 1.12702 6.64476 1.59211 6.64476H5.80263C6.26773 6.64476 6.64474 7.02177 6.64474 7.48687V10.0132C6.64474 10.4783 7.02175 10.8553 7.48684 10.8553H10.0132C10.4783 10.8553 10.8553 11.2323 10.8553 11.6974V15.9079C10.8553 16.373 10.4783 16.75 10.0132 16.75H1.59211C1.12702 16.75 0.75 16.373 0.75 15.9079Z" stroke="var(--stroke-0, white)" stroke-width="1.5" stroke-linecap="round" stroke-linejoin="bevel"/>
<path id="Vector_2" d="M6.64476 10.0132V1.59211C6.64476 1.12702 7.02177 0.75 7.48687 0.75H15.9079C16.373 0.75 16.75 1.12702 16.75 1.59211V10.0132C16.75 10.4783 16.373 10.8553 15.9079 10.8553H7.48687C7.02177 10.8553 6.64476 10.4783 6.64476 10.0132Z" stroke="var(--stroke-0, white)" stroke-width="1.5" stroke-linecap="round" stroke-linejoin="bevel"/>
<path id="Vector 14" d="M14.2237 3.27631L9.17107 8.32894" stroke="var(--stroke-0, white)" stroke-width="1.5" stroke-linecap="round"/>
</g>
</svg>
