<svg preserveAspectRatio="none" width="100%" height="100%" overflow="visible" style="display: block;" viewBox="0 0 17.5919 15.5" fill="none" xmlns="http://www.w3.org/2000/svg">
<g id="Group 8">
<path id="Vector" d="M6.78448 6.38217C8.33976 6.38217 9.60056 5.12137 9.60056 3.56609C9.60056 2.01081 8.33976 0.75 6.78448 0.75C5.22919 0.75 3.96839 2.01081 3.96839 3.56609C3.96839 5.12137 5.22919 6.38217 6.78448 6.38217Z" stroke="var(--stroke-0, white)" stroke-width="1.5" stroke-linecap="round" stroke-linejoin="bevel"/>
<path id="Vector_2" d="M12.2588 1.15225C13.0766 1.64503 13.6236 2.54167 13.6236 3.56604C13.6236 4.59041 13.0766 5.48705 12.2588 5.97983" stroke="var(--stroke-0, white)" stroke-width="1.5" stroke-linecap="round" stroke-linejoin="bevel"/>
<path id="Vector_3" d="M0.75 14.7499C0.75 12.9475 0.75 12.0462 1.10078 11.3578C1.40934 10.7522 1.90169 10.2598 2.50727 9.95127C3.19573 9.60051 4.09696 9.60051 5.89941 9.60051H7.66953C9.47198 9.60051 10.3732 9.60051 11.0617 9.95127C11.6672 10.2598 12.1596 10.7522 12.4682 11.3578C12.8189 12.0462 12.8189 12.9475 12.8189 14.7499" stroke="var(--stroke-0, white)" stroke-width="1.5" stroke-linecap="round" stroke-linejoin="round"/>
<path id="Vector_4" d="M16.8419 14.75C16.8419 12.9475 16.8419 12.0463 16.4912 11.3579C16.1826 10.7523 15.6902 10.2599 15.0846 9.95139" stroke="var(--stroke-0, white)" stroke-width="1.5" stroke-linecap="round" stroke-linejoin="bevel"/>
</g>
</svg>
