<svg width="24" height="24" viewBox="0 0 24 24" fill="none" xmlns="http://www.w3.org/2000/svg">
<path d="M10.0346 10.6322C11.5899 10.6322 12.8507 9.37137 12.8507 7.81609C12.8507 6.26081 11.5899 5 10.0346 5C8.47931 5 7.21851 6.26081 7.21851 7.81609C7.21851 9.37137 8.47931 10.6322 10.0346 10.6322Z" stroke="white" stroke-width="1.5" stroke-linecap="round" stroke-linejoin="bevel"/>
<path d="M15.5088 5.40225C16.3266 5.89503 16.8735 6.79167 16.8735 7.81604C16.8735 8.84041 16.3266 9.73705 15.5088 10.2298" stroke="white" stroke-width="1.5" stroke-linecap="round" stroke-linejoin="bevel"/>
<path d="M4 18.9999C4 17.1975 4 16.2963 4.35078 15.6078C4.65934 15.0022 5.15169 14.5099 5.75727 14.2013C6.44573 13.8505 7.34696 13.8505 9.14941 13.8505H10.9195C12.722 13.8505 13.6232 13.8505 14.3117 14.2013C14.9172 14.5099 15.4096 15.0022 15.7182 15.6078C16.0689 16.2963 16.0689 17.1975 16.0689 18.9999" stroke="white" stroke-width="1.5" stroke-linecap="round" stroke-linejoin="round"/>
<path d="M20.092 19C20.092 17.1975 20.092 16.2963 19.7412 15.6079C19.4327 15.0023 18.9403 14.5099 18.3347 14.2014" stroke="white" stroke-width="1.5" stroke-linecap="round" stroke-linejoin="bevel"/>
</svg>
