<svg width="24" height="24" viewBox="0 0 24 24" fill="none" xmlns="http://www.w3.org/2000/svg">
<path d="M4 19.1579V10.7369C4 10.2718 4.37702 9.89478 4.84211 9.89478H9.05263C9.51773 9.89478 9.89474 10.2718 9.89474 10.7369V13.2632C9.89474 13.7283 10.2717 14.1053 10.7368 14.1053H13.2632C13.7283 14.1053 14.1053 14.4823 14.1053 14.9474V19.1579C14.1053 19.623 13.7283 20 13.2632 20H4.84211C4.37702 20 4 19.623 4 19.1579Z" stroke="white" stroke-width="1.5" stroke-linecap="round" stroke-linejoin="bevel"/>
<path d="M9.89478 13.2632V4.84211C9.89478 4.37702 10.2718 4 10.7369 4H19.1579C19.623 4 20 4.37702 20 4.84211V13.2632C20 13.7283 19.623 14.1053 19.1579 14.1053H10.7369C10.2718 14.1053 9.89478 13.7283 9.89478 13.2632Z" stroke="white" stroke-width="1.5" stroke-linecap="round" stroke-linejoin="bevel"/>
<path d="M17.4738 6.52631L12.4211 11.5789" stroke="white" stroke-width="1.5" stroke-linecap="round"/>
</svg>
