<svg width="20" height="20" viewBox="0 0 20 20" fill="none" xmlns="http://www.w3.org/2000/svg">
<path d="M3.96837 7.38125L2.97241 9.37316L9.9441 16.3448L19.9037 3.39743L18.9077 1.40552L8.94814 10.3691L3.96837 7.38125Z" fill="#07D4AA"/>
<path d="M0 10C0 4.47715 4.47715 0 10 0C12.1432 0 14.8913 0.869565 16.413 2.22826L15.2174 3.31522C13.913 2.22826 11.7957 1.63043 10 1.63043C5.37762 1.63043 1.63043 5.37762 1.63043 10C1.63043 14.6224 5.37762 18.3696 10 18.3696C14.6224 18.3696 18.3696 14.6224 18.3696 10C18.3696 8.67779 18.2617 8.12063 17.7174 7.01087L18.9831 5.60165C19.6346 6.92995 20 8.42347 20 10C20 15.5228 15.5228 20 10 20C4.47715 20 0 15.5228 0 10Z" fill="#07D4AA"/>
</svg>
