<svg preserveAspectRatio="none" width="100%" height="100%" overflow="visible" style="display: block;" viewBox="0 0 19.5 19.5" fill="none" xmlns="http://www.w3.org/2000/svg">
<g id="Group 11">
<path id="Vector" d="M9.75001 18.75C14.7206 18.75 18.75 14.7206 18.75 9.74999C18.75 4.77942 14.7206 0.75 9.75001 0.75C4.77944 0.75 0.75 4.77942 0.75 9.74999C0.75 14.7206 4.77944 18.75 9.75001 18.75Z" stroke="var(--stroke-0, white)" stroke-width="1.5"/>
<path id="Vector_2" d="M1.65 12.8937C2.83436 13.3686 3.68697 13.3686 4.20775 12.8937C4.98896 12.1813 4.31485 10.0192 5.40894 9.4229C6.50298 8.82661 8.16987 11.4698 9.72787 10.6001C11.2858 9.73034 9.58108 7.41122 10.6622 6.47103C11.7434 5.53085 13.1493 6.59118 13.3951 5.01911C13.6408 3.44705 12.2485 4.12887 11.9813 2.6433C11.8031 1.65293 11.8031 1.13216 11.9813 1.08098" stroke="var(--stroke-0, white)" stroke-width="1.5" stroke-linecap="round"/>
<path id="Vector_3" d="M12.0094 18.4577C11.1661 17.5945 10.8625 16.7923 11.0986 16.0508C11.4529 14.9386 12.0372 15.0043 12.292 14.3166C12.5467 13.6289 11.827 12.6494 13.424 11.8121C14.4886 11.2539 15.9524 11.9006 17.8153 13.7524" stroke="var(--stroke-0, white)" stroke-width="1.5" stroke-linecap="round"/>
</g>
</svg>
