<svg preserveAspectRatio="none" width="100%" height="100%" overflow="visible" style="display: block;" viewBox="0 0 17.5 17.5001" fill="none" xmlns="http://www.w3.org/2000/svg">
<g id="Group 10">
<path id="Vector" fill-rule="evenodd" clip-rule="evenodd" d="M6.34279 3.93769L11.8638 0.750125L13.7088 3.94569L6.34279 3.93769Z" stroke="var(--stroke-0, #17201F)" stroke-width="1.5" stroke-linecap="round" stroke-linejoin="round"/>
<path id="Vector_2" d="M0.75 4.75013C0.75 4.30829 1.10817 3.95013 1.55 3.95013H15.95C16.3918 3.95013 16.75 4.30829 16.75 4.75013V15.9501C16.75 16.392 16.3918 16.7501 15.95 16.7501H1.55C1.10817 16.7501 0.75 16.392 0.75 15.9501V4.75013Z" stroke="var(--stroke-0, #17201F)" stroke-width="1.5" stroke-linejoin="round"/>
<path id="Vector_3" d="M13.25 12.3501H16.75V8.35013H13.25C12.0902 8.35013 11.15 9.24557 11.15 10.3501C11.15 11.4547 12.0902 12.3501 13.25 12.3501Z" stroke="var(--stroke-0, #17201F)" stroke-width="1.5" stroke-linejoin="round"/>
<path id="Vector_4" d="M16.75 5.75013V15.3501" stroke="var(--stroke-0, #17201F)" stroke-width="1.5" stroke-linecap="round" stroke-linejoin="round"/>
</g>
</svg>
