<svg preserveAspectRatio="none" width="100%" height="100%" overflow="visible" style="display: block;" viewBox="0 0 298.075 296" fill="none" xmlns="http://www.w3.org/2000/svg">
<g id="Group 142">
<g id="Vector">
<path d="M58.3197 8C33.1078 9.34758 12.8334 28.8127 12.16 53.3237C11.5017 77.4306 31.836 100.729 56.255 100.923C90.7291 101.193 108.25 126.363 108.206 149.915C108.146 181.539 89.1281 201.872 56.3 204.568C31.6863 206.574 13.4319 223.404 12.1002 245.324C10.6039 269.686 25.9856 289.764 50.3148 295.2C74.2703 300.56 101.532 278.235 102.969 250.7C104.121 228.51 112.38 212.099 133.298 202.786C154.575 193.322 173.383 197.68 190.575 212.054C203.173 222.595 205.223 237.583 206.824 252.631C210.386 286.141 243.334 305.022 272.556 290.289C289.029 281.978 301.06 258.665 297.424 242.075C292.86 221.263 275.847 206.304 255.319 204.807C218.795 202.142 184.515 194.251 155.682 168.946C122.39 139.719 104.794 103.634 103.357 59.6874C102.729 40.4019 90.5194 20.9518 79.4771 14.4235C73.2825 10.77 66.8934 8 58.3197 8Z" fill="var(--fill-0, #303534)"/>
<path d="M220.755 9.70803C179.907 9.7829 144.909 44.3258 144.864 84.6486C144.82 125.36 180.805 161.311 221.279 160.997C263.1 160.667 299.474 124.732 297.633 83.4359C296.003 46.7516 264.072 6.68346 220.755 9.70803Z" fill="var(--fill-0, #303534)"/>
</g>
<g id="Vector_2">
<path d="M46.3197 0C21.1078 1.34758 0.833359 20.8127 0.160038 45.3237C-0.498319 69.4306 19.836 92.7287 44.255 92.9234C78.7291 93.1927 96.2502 118.363 96.2056 141.915C96.1455 173.539 77.1281 193.872 44.3 196.568C19.6863 198.574 1.43186 215.404 0.100188 237.324C-1.39608 261.686 13.9856 281.764 38.3148 287.2C62.2703 292.56 89.5323 270.235 90.9686 242.7C92.1207 220.51 100.38 204.099 121.298 194.786C142.575 185.322 161.383 189.68 178.575 204.054C191.173 214.595 193.223 229.583 194.824 244.631C198.386 278.141 231.334 297.022 260.556 282.289C277.029 273.978 289.06 250.665 285.424 234.075C280.86 213.263 263.847 198.304 243.319 196.807C206.795 194.142 172.515 186.251 143.682 160.946C110.39 131.719 92.7941 95.6336 91.3574 51.6874C90.729 32.4019 78.5194 12.9518 67.4771 6.42349C61.2825 2.77003 54.8934 0 46.3197 0Z" fill="url(#paint0_linear_0_23)"/>
<path d="M208.755 1.70803C167.907 1.7829 132.909 36.3258 132.864 76.6486C132.82 117.36 168.805 153.311 209.279 152.997C251.1 152.667 287.474 116.732 285.633 75.4359C284.003 38.7516 252.072 -1.31654 208.755 1.70803Z" fill="url(#paint1_linear_0_23)"/>
</g>
</g>
<defs>
<linearGradient id="paint0_linear_0_23" x1="141.802" y1="11.6639" x2="269.671" y2="149.605" gradientUnits="userSpaceOnUse">
<stop stop-color="white"/>
<stop offset="1" stop-color="#999999"/>
</linearGradient>
<linearGradient id="paint1_linear_0_23" x1="141.802" y1="11.6639" x2="269.671" y2="149.605" gradientUnits="userSpaceOnUse">
<stop stop-color="white"/>
<stop offset="1" stop-color="#999999"/>
</linearGradient>
</defs>
</svg>
