<svg preserveAspectRatio="none" width="100%" height="100%" overflow="visible" style="display: block;" viewBox="0 0 21 21" fill="none" xmlns="http://www.w3.org/2000/svg">
<g id="Group 60">
<path id="Vector" d="M10.5 14.5C16.0229 14.5 20.5 12.7092 20.5 10.5C20.5 8.29085 16.0229 6.5 10.5 6.5C4.97715 6.5 0.5 8.29085 0.5 10.5C0.5 12.7092 4.97715 14.5 10.5 14.5Z" stroke="var(--stroke-0, #07D4AA)" stroke-linecap="round" stroke-linejoin="round"/>
<path id="Vector_2" d="M14.5 10.5C14.5 16.0229 12.7092 20.5 10.5 20.5C8.29085 20.5 6.5 16.0229 6.5 10.5C6.5 4.97715 8.29085 0.5 10.5 0.5C12.7092 0.5 14.5 4.97715 14.5 10.5Z" stroke="var(--stroke-0, #07D4AA)" stroke-linecap="round" stroke-linejoin="round"/>
<path id="Vector_3" d="M10.5 20.5C16.0228 20.5 20.5 16.0228 20.5 10.5C20.5 4.97715 16.0228 0.5 10.5 0.5C4.97715 0.5 0.5 4.97715 0.5 10.5C0.5 16.0228 4.97715 20.5 10.5 20.5Z" stroke="var(--stroke-0, #07D4AA)" stroke-linejoin="round"/>
</g>
</svg>
