<svg preserveAspectRatio="none" width="100%" height="100%" overflow="visible" style="display: block;" viewBox="0 0 20.1146 20" fill="none" xmlns="http://www.w3.org/2000/svg">
<g id="tw">
<path id="path" d="M18.6707 17.9588L11.9302 8.44521L11.168 7.37029L6.34728 0.564612L5.94719 0H0.0224166L1.46618 2.03909L7.876 11.088L8.63806 12.1629L13.7896 19.4333L14.1896 19.9957H20.1145L18.6707 17.9588ZM14.8937 18.6971L9.54327 11.1423L8.78111 10.0674L2.57251 1.30294H5.24322L10.2651 8.39087L11.0273 9.46579L17.5667 18.6971H14.8937Z" fill="var(--fill-0, white)"/>
<path id="polygon" d="M8.78104 10.0673L9.54319 11.1443L8.64028 12.165L1.70973 20H0L7.87812 11.0901L8.78104 10.0673Z" fill="var(--fill-0, white)"/>
<path id="polygon_2" d="M19.4016 0L11.9302 8.44521L11.0273 9.46579L10.2652 8.39087L11.1681 7.37029L16.2281 1.64605L17.6919 0H19.4016Z" fill="var(--fill-0, white)"/>
</g>
</svg>
