<svg preserveAspectRatio="none" width="100%" height="100%" overflow="visible" style="display: block;" viewBox="0 0 23.3985 22.2222" fill="none" xmlns="http://www.w3.org/2000/svg">
<path id="path" d="M7.12384 16.9181L18.8344 5.50133C18.8448 5.504 18.8786 5.50656 18.8838 5.51689L10.0846 18.042C10.0794 18.0498 10.0691 18.0652 10.0638 18.073C10.0508 18.0937 10.0378 18.1221 10.0301 18.1453C10.0014 18.2229 9.99617 18.3003 10.0066 18.3753L10.2666 21.6021L7.12384 16.9181ZM11.2362 22.2222L10.9762 18.9824L13.412 19.8789L11.2362 22.2222ZM23.3965 0.450501L21.6263 21.4213C21.6158 21.5401 21.5535 21.6461 21.4521 21.7081C21.3507 21.7701 21.2312 21.783 21.1167 21.7417L14.4102 19.2743C14.3815 19.2614 14.353 19.2511 14.3244 19.2433L11.1712 18.0833L19.6221 6.05945C19.908 5.65378 19.8378 5.12678 19.4583 4.80645C19.0787 4.486 18.5433 4.50667 18.1872 4.85289L6.41417 16.3317L0.17284 14.0349C0.0324623 13.9832 0.00387357 13.8592 0.00127357 13.8101C-0.00392643 13.761 0.00127346 13.6344 0.12604 13.5596L22.7701 0.06039C22.9649 -0.0558767 23.1365 0.0242123 23.2015 0.0655568C23.3367 0.150812 23.4121 0.292912 23.3965 0.450501Z" fill="var(--fill-0, white)"/>
</svg>
