<svg preserveAspectRatio="none" width="100%" height="100%" overflow="visible" style="display: block;" viewBox="0 0 296 60" fill="none" xmlns="http://www.w3.org/2000/svg">
<g id="OrTradeX-&#231;&#187;&#191;&#231;&#153;&#189; 2">
<path id="Vector" d="M109.961 29.7147C109.961 32.305 109.463 34.5008 108.466 36.3017C107.469 38.1025 106.12 39.4706 104.417 40.4056C102.723 41.3406 100.821 41.8081 98.7125 41.8081C96.5963 41.8081 94.6908 41.3367 92.996 40.3942C91.3014 39.4514 89.9557 38.0836 88.959 36.2903C87.9698 34.4892 87.4751 32.2975 87.4751 29.7147C87.4751 27.1245 87.9698 24.9289 88.959 23.128C89.9557 21.327 91.3014 19.9591 92.996 19.0241C94.6908 18.0892 96.5963 17.6217 98.7125 17.6217C100.821 17.6217 102.723 18.0892 104.417 19.0241C106.12 19.9591 107.469 21.327 108.466 23.128C109.463 24.9289 109.961 27.1245 109.961 29.7147ZM104.141 29.7147C104.141 28.1822 103.923 26.887 103.486 25.8294C103.056 24.7718 102.435 23.971 101.623 23.4269C100.817 22.8827 99.8473 22.6107 98.7125 22.6107C97.5852 22.6107 96.6152 22.8827 95.8026 23.4269C94.9899 23.971 94.3648 24.7718 93.9279 25.8294C93.4985 26.887 93.2836 28.1822 93.2836 29.7147C93.2836 31.2475 93.4985 32.5428 93.9279 33.6003C94.3648 34.6578 94.9899 35.4586 95.8026 36.0028C96.6152 36.5469 97.5852 36.8189 98.7125 36.8189C99.8473 36.8189 100.817 36.5469 101.623 36.0028C102.435 35.4586 103.056 34.6578 103.486 33.6003C103.923 32.5428 104.141 31.2475 104.141 29.7147ZM116.524 41.4861V23.8292H121.988V27.0479H122.172C122.494 25.883 123.019 25.0171 123.747 24.4499C124.476 23.8752 125.323 23.5878 126.289 23.5878C126.55 23.5878 126.819 23.6069 127.095 23.6452C127.371 23.6759 127.627 23.7257 127.865 23.7947V28.6803C127.597 28.5883 127.244 28.5156 126.807 28.4619C126.378 28.4081 125.994 28.3814 125.657 28.3814C124.99 28.3814 124.388 28.5308 123.851 28.8297C123.322 29.1208 122.904 29.5308 122.597 30.0597C122.298 30.5808 122.149 31.1939 122.149 31.8989V41.4861H116.524ZM130.791 22.5647V17.9436H150.7V22.5647H143.558V41.4861H137.945V22.5647H130.791ZM154.885 41.4861V23.8292H160.349V27.0479H160.533C160.855 25.883 161.38 25.0171 162.109 24.4499C162.837 23.8752 163.684 23.5878 164.65 23.5878C164.911 23.5878 165.18 23.6069 165.456 23.6452C165.732 23.6759 165.988 23.7257 166.226 23.7947V28.6803C165.958 28.5883 165.605 28.5156 165.168 28.4619C164.739 28.4081 164.355 28.3814 164.018 28.3814C163.351 28.3814 162.749 28.5308 162.212 28.8297C161.683 29.1208 161.265 29.5308 160.958 30.0597C160.659 30.5808 160.51 31.1939 160.51 31.8989V41.4861H154.885ZM176.073 41.785C174.946 41.785 173.945 41.5972 173.071 41.2217C172.204 40.8386 171.518 40.2639 171.012 39.4975C170.514 38.7233 170.264 37.7539 170.264 36.5892C170.264 35.6081 170.437 34.7806 170.782 34.1061C171.127 33.4317 171.602 32.8836 172.208 32.4622C172.814 32.0408 173.512 31.7228 174.302 31.5081C175.091 31.2858 175.935 31.1364 176.832 31.0597C177.837 30.9678 178.646 30.8719 179.259 30.7725C179.872 30.665 180.317 30.5156 180.593 30.3242C180.877 30.1247 181.019 29.845 181.019 29.485V29.4275C181.019 28.8372 180.816 28.3814 180.409 28.0594C180.003 27.7376 179.455 27.5767 178.764 27.5767C178.021 27.5767 177.422 27.7376 176.97 28.0594C176.518 28.3814 176.23 28.8258 176.107 29.3931L170.92 29.2092C171.074 28.1361 171.468 27.1782 172.105 26.3352C172.749 25.4845 173.631 24.8178 174.75 24.335C175.877 23.8445 177.231 23.5993 178.81 23.5993C179.938 23.5993 180.977 23.7334 181.927 24.0016C182.878 24.2622 183.706 24.6454 184.412 25.1512C185.117 25.6493 185.662 26.2624 186.045 26.9904C186.436 27.7185 186.632 28.55 186.632 29.485V41.4861H181.341V39.0261H181.203C180.889 39.6239 180.486 40.1297 179.995 40.5436C179.512 40.9572 178.941 41.2678 178.281 41.4747C177.629 41.6817 176.893 41.785 176.073 41.785ZM177.81 38.1064C178.415 38.1064 178.96 37.9839 179.443 37.7386C179.934 37.4933 180.325 37.1561 180.616 36.7269C180.908 36.2903 181.053 35.7844 181.053 35.2097V33.5314C180.892 33.6156 180.697 33.6922 180.467 33.7611C180.244 33.8303 179.999 33.8953 179.731 33.9567C179.462 34.0181 179.186 34.0717 178.902 34.1175C178.619 34.1636 178.347 34.2058 178.086 34.2439C177.557 34.3283 177.104 34.4586 176.729 34.6347C176.36 34.8111 176.077 35.0411 175.877 35.3244C175.686 35.6006 175.59 35.93 175.59 36.3131C175.59 36.8956 175.797 37.34 176.211 37.6467C176.633 37.9533 177.166 38.1064 177.81 38.1064ZM199.762 41.7389C198.459 41.7389 197.274 41.4019 196.208 40.7275C195.142 40.0531 194.291 39.0414 193.655 37.6925C193.018 36.3439 192.7 34.6694 192.7 32.6692C192.7 30.5922 193.03 28.8833 193.689 27.5422C194.349 26.2011 195.211 25.2086 196.277 24.5649C197.351 23.9211 198.505 23.5993 199.739 23.5993C200.667 23.5993 201.461 23.7602 202.12 24.0821C202.779 24.3963 203.324 24.8025 203.753 25.3006C204.183 25.7987 204.509 26.316 204.731 26.8525H204.846V17.9436H210.47V41.4861H204.903V38.6239H204.731C204.493 39.1678 204.156 39.6775 203.719 40.1528C203.282 40.6278 202.734 41.0108 202.074 41.3022C201.422 41.5933 200.652 41.7389 199.762 41.7389ZM201.717 37.3592C202.4 37.3592 202.983 37.1678 203.466 36.7844C203.949 36.3936 204.321 35.8458 204.582 35.1406C204.842 34.4356 204.973 33.6081 204.973 32.6578C204.973 31.6919 204.842 30.8606 204.582 30.1631C204.328 29.4658 203.957 28.9294 203.466 28.5539C202.983 28.1783 202.4 27.9906 201.717 27.9906C201.02 27.9906 200.429 28.1822 199.946 28.5653C199.463 28.9483 199.095 29.4889 198.842 30.1861C198.597 30.8836 198.474 31.7075 198.474 32.6578C198.474 33.6081 198.6 34.4356 198.854 35.1406C199.107 35.8458 199.471 36.3936 199.946 36.7844C200.429 37.1678 201.02 37.3592 201.717 37.3592ZM225.525 41.8194C223.677 41.8194 222.082 41.4556 220.74 40.7275C219.406 39.9917 218.378 38.9456 217.657 37.5892C216.944 36.225 216.588 34.6042 216.588 32.7267C216.588 30.9028 216.948 29.3086 217.669 27.9444C218.39 26.5727 219.406 25.5075 220.717 24.7488C222.028 23.9825 223.573 23.5993 225.352 23.5993C226.61 23.5993 227.76 23.7947 228.803 24.1856C229.846 24.5764 230.747 25.155 231.506 25.9214C232.265 26.6877 232.855 27.6342 233.277 28.7608C233.699 29.8797 233.909 31.1633 233.909 32.6117V34.0142H218.554V30.7494H228.676C228.668 30.1517 228.527 29.6192 228.251 29.1517C227.974 28.6842 227.595 28.32 227.112 28.0594C226.636 27.7914 226.088 27.6572 225.467 27.6572C224.838 27.6572 224.275 27.7989 223.776 28.0825C223.278 28.3583 222.883 28.7378 222.592 29.2206C222.3 29.6956 222.147 30.2358 222.132 30.8414V34.1636C222.132 34.8839 222.273 35.5161 222.557 36.0603C222.841 36.5967 223.243 37.0144 223.765 37.3133C224.286 37.6122 224.907 37.7617 225.628 37.7617C226.126 37.7617 226.579 37.6925 226.985 37.5547C227.392 37.4167 227.741 37.2136 228.032 36.9456C228.324 36.6772 228.542 36.3478 228.688 35.9569L233.852 36.1064C233.637 37.2633 233.166 38.2711 232.437 39.1294C231.717 39.9803 230.77 40.6431 229.596 41.1183C228.423 41.5858 227.066 41.8194 225.525 41.8194ZM245.783 17.9436L250.085 25.3811H250.269L254.617 17.9436H260.989L253.881 29.7147L261.219 41.4861H254.686L250.269 33.9681H250.085L245.668 41.4861H239.181L246.485 29.7147L239.365 17.9436H245.783Z" fill="var(--fill-0, white)"/>
<path id="Vector_2" fill-rule="evenodd" clip-rule="evenodd" d="M73.4388 11.3217C73.5664 11.3217 73.7018 11.2824 73.8271 11.3588C73.8324 11.5172 73.7048 11.5895 73.624 11.683C68.926 17.1012 64.2289 22.5207 59.5138 27.9242C59.2181 28.2619 59.3181 28.4244 59.551 28.6978C65.0191 35.1 70.4805 41.5089 75.9411 47.9175C76.022 48.0131 76.1454 48.0867 76.154 48.2439C76.0211 48.3406 75.8711 48.2939 75.7326 48.2939C70.1531 48.2958 64.5722 48.2931 58.9927 48.3036C58.6778 48.3047 58.4865 48.1992 58.2928 47.9633C55.7961 44.9269 53.2894 41.8989 50.7853 38.8689C50.4237 38.4311 50.4245 38.4319 50.0418 38.8731C48.7625 40.3469 47.4767 41.8169 46.2049 43.2975C46.0254 43.5069 45.8433 43.5994 45.5629 43.5972C43.5167 43.5856 41.4706 43.5922 39.4247 43.5878C39.3013 43.5878 39.1237 43.6631 39.0631 43.5231C39.0045 43.3881 39.1734 43.3008 39.2543 43.2061C45.0957 36.4053 50.9392 29.6072 56.7828 22.8096C59.9857 19.0834 63.1897 15.3583 66.3863 11.6257C66.5766 11.4036 66.7651 11.3101 67.0616 11.3122C69.1873 11.326 71.3132 11.3185 73.4388 11.3217ZM55.6272 12.3907C56.3128 11.6033 56.9746 11.2365 58.041 11.2897C59.9882 11.3864 61.9449 11.3152 63.8971 11.3195C64.0355 11.3206 64.1864 11.2707 64.3554 11.4003C64.0683 11.7351 63.7887 12.0645 63.5058 12.3907C57.6283 19.1566 51.7497 25.9205 45.8733 32.6864C41.4419 37.7878 37.0139 42.8906 32.5892 47.9972C32.4094 48.2044 32.2245 48.2981 31.9438 48.2969C29.4735 48.2864 27.002 48.2908 24.5318 48.2886C24.418 48.2886 24.254 48.3481 24.1987 48.2406C24.1234 48.0972 24.2987 48.0164 24.3784 47.9242C29.8974 41.5153 35.5389 35.2139 41.1273 28.8644C45.9595 23.3729 50.8225 17.9068 55.6272 12.3907ZM43.686 11.3122C43.9656 11.3122 44.1504 11.4004 44.3302 11.6097C45.8264 13.3527 47.3269 15.0924 48.8403 16.8194C49.0912 17.1053 49.1379 17.2756 48.8444 17.5923C46.0562 20.6011 43.2871 23.628 40.5234 26.6602C40.2871 26.9195 40.1765 26.944 39.9266 26.6635C35.455 21.631 30.9716 16.6101 26.4892 11.5872C26.4372 11.5288 26.3894 11.4671 26.3183 11.3822C26.4872 11.2824 26.6212 11.3195 26.7487 11.3195C32.3944 11.3163 38.0403 11.3196 43.686 11.3122Z" fill="var(--fill-0, #07D4AA)"/>
</g>
</svg>
