<svg preserveAspectRatio="none" width="100%" height="100%" overflow="visible" style="display: block;" viewBox="0 0 2086 1120" fill="none" xmlns="http://www.w3.org/2000/svg">
<g id="Vector 27" filter="url(#filter0_f_0_23)">
<path d="M426.961 472.493C544.495 432.731 783.615 352.594 799.827 350.147L1124.06 218.625C1294.28 214.547 1654.18 205.167 1731.99 200.274C1809.81 195.38 1867.09 257.368 1886 288.974V732.478C1886 775.299 1832.58 884 1788 884C1743.42 884 1640.69 920 1588 920C1535.31 920 1488.82 864 1468.55 864C1448.29 864 1320.53 732.478 1280 732.478C1239.47 732.478 1208.53 796.71 1168 787.534C1127.47 778.358 1095.69 864 1075.42 836.472C1059.21 814.45 1014.63 817.101 994.365 821.179C948.433 826.277 845.219 830.355 799.827 805.886C754.434 781.417 756.596 718.204 763.351 689.657C739.034 722.283 686.346 791.204 670.135 805.886C653.923 820.567 582.322 812.003 548.548 805.886C537.74 799.768 511.262 787.534 491.808 787.534C467.49 787.534 426.961 824.238 390.486 836.472C361.305 846.26 272.952 858.902 232.423 864C221.615 850.746 200 820.567 200 805.886C200 787.534 232.423 711.068 232.423 689.657C232.423 668.247 224.317 646.836 232.423 616.25C240.529 585.663 248.635 588.722 260.793 570.37C270.52 555.688 310.779 523.471 329.692 509.197L426.961 472.493Z" fill="var(--fill-0, #D9D9D9)"/>
</g>
<defs>
<filter id="filter0_f_0_23" x="0" y="2.72284e-08" width="2086" height="1120" filterUnits="userSpaceOnUse" color-interpolation-filters="sRGB">
<feFlood flood-opacity="0" result="BackgroundImageFix"/>
<feBlend mode="normal" in="SourceGraphic" in2="BackgroundImageFix" result="shape"/>
<feGaussianBlur stdDeviation="100" result="effect1_foregroundBlur_0_23"/>
</filter>
</defs>
</svg>
