<svg preserveAspectRatio="none" width="100%" height="100%" overflow="visible" style="display: block;" viewBox="0 0 26.9209 30" fill="none" xmlns="http://www.w3.org/2000/svg">
<g id="g1231">
<path id="path1192" fill-rule="evenodd" clip-rule="evenodd" d="M0.531077 0.460068C0.193838 0.82252 4.6961e-06 1.38038 4.6961e-06 2.10529V27.8899C4.6961e-06 28.6148 0.193838 29.1726 0.543684 29.5225L0.635085 29.5997L15.0828 15.152V14.8274L0.622478 0.382849L0.531077 0.460068Z" fill="url(#paint0_linear_0_14)"/>
<path id="path1203" fill-rule="evenodd" clip-rule="evenodd" d="M19.8893 19.9867L15.0702 15.1661V14.8288L19.8909 10.0082L19.9949 10.0728L25.6964 13.3128C27.329 14.2331 27.329 15.7491 25.6964 16.6821L19.9949 19.9221C19.9933 19.9221 19.8893 19.9867 19.8893 19.9867Z" fill="url(#paint1_linear_0_14)"/>
<path id="path1210" fill-rule="evenodd" clip-rule="evenodd" d="M19.9931 19.9222L15.0701 14.9975L0.531004 29.5366C1.06208 30.1071 1.9556 30.1717 2.95471 29.6138L19.9931 19.9222Z" fill="url(#paint2_linear_0_14)"/>
<path id="path1223" fill-rule="evenodd" clip-rule="evenodd" d="M19.9931 10.0744L2.95471 0.395308C1.95718 -0.175161 1.06208 -0.0979426 0.531004 0.472526L15.0685 14.9974L19.9931 10.0744Z" fill="url(#paint3_linear_0_14)"/>
<path id="path1225" opacity="0.2" fill-rule="evenodd" clip-rule="evenodd" d="M19.8893 19.8181L2.96744 29.4326C2.02191 29.9763 1.17882 29.9385 0.63514 29.4452L0.543738 29.5366L0.63514 29.6138C1.17882 30.1055 2.02191 30.1449 2.96744 29.6012L20.0059 19.9222L19.8893 19.8181Z" fill="var(--fill-0, black)"/>
<path id="path1227" opacity="0.12" fill-rule="evenodd" clip-rule="evenodd" d="M25.6948 16.5135L19.8766 19.8181L19.9806 19.9222L25.6822 16.6821C26.4985 16.2157 26.9003 15.6074 26.9003 14.9975C26.8483 15.5554 26.4339 16.0865 25.6948 16.5135Z" fill="var(--fill-0, black)"/>
<path id="path1229" opacity="0.25" fill-rule="evenodd" clip-rule="evenodd" d="M2.95478 0.564035L25.6947 13.4831C26.4338 13.8976 26.8483 14.4412 26.9129 14.9991C26.9129 14.3908 26.511 13.7809 25.6947 13.3145L2.95478 0.395416C1.32216 -0.537506 0 0.239403 0 2.10525V2.27387C0 0.408023 1.32216 -0.35628 2.95478 0.564035Z" fill="var(--fill-0, white)"/>
</g>
<defs>
<linearGradient id="paint0_linear_0_14" x1="13.7854" y1="1.82813" x2="-9.35726" y2="7.99452" gradientUnits="userSpaceOnUse">
<stop stop-color="#00A0FF"/>
<stop offset="0.007" stop-color="#00A1FF"/>
<stop offset="0.26" stop-color="#00BEFF"/>
<stop offset="0.512" stop-color="#00D2FF"/>
<stop offset="0.76" stop-color="#00DFFF"/>
<stop offset="1" stop-color="#00E3FF"/>
</linearGradient>
<linearGradient id="paint1_linear_0_14" x1="27.8209" y1="14.9982" x2="-0.39671" y2="14.9982" gradientUnits="userSpaceOnUse">
<stop stop-color="#FFE000"/>
<stop offset="0.409" stop-color="#FFBD00"/>
<stop offset="0.775" stop-color="#FFA500"/>
<stop offset="1" stop-color="#FF9C00"/>
</linearGradient>
<linearGradient id="paint2_linear_0_14" x1="17.3161" y1="17.6766" x2="-1.26291" y2="48.9463" gradientUnits="userSpaceOnUse">
<stop stop-color="#FF3A44"/>
<stop offset="1" stop-color="#C31162"/>
</linearGradient>
<linearGradient id="paint3_linear_0_14" x1="-3.12884" y1="-8.11728" x2="5.15983" y2="5.84828" gradientUnits="userSpaceOnUse">
<stop stop-color="#32A071"/>
<stop offset="0.069" stop-color="#2DA771"/>
<stop offset="0.476" stop-color="#15CF74"/>
<stop offset="0.801" stop-color="#06E775"/>
<stop offset="1" stop-color="#00F076"/>
</linearGradient>
</defs>
</svg>
