<svg preserveAspectRatio="none" width="100%" height="100%" overflow="visible" style="display: block;" viewBox="0 0 70 70" fill="none" xmlns="http://www.w3.org/2000/svg">
<g id="OrTradeX-&#231;&#187;&#191; 1">
<path id="Vector" fill-rule="evenodd" clip-rule="evenodd" d="M59.1793 16.0389C59.3119 16.0389 59.4521 15.9975 59.5825 16.0781C59.588 16.2449 59.4554 16.3211 59.3715 16.4196C54.4902 22.1276 49.6099 27.8366 44.7109 33.5289C44.4037 33.885 44.5076 34.0563 44.7495 34.344C50.4308 41.0888 56.1055 47.8403 61.779 54.5918C61.863 54.6925 61.9912 54.7698 62 54.9354C61.8619 55.0374 61.7061 54.9881 61.5625 54.9881C55.7652 54.9903 49.9668 54.987 44.1695 54.9982C43.8425 54.9993 43.6436 54.8884 43.4425 54.6399C40.8482 51.4411 38.2441 48.2512 35.6421 45.0591C35.2664 44.5978 35.2675 44.5989 34.8698 45.0635C33.5406 46.6164 32.2048 48.1649 30.8833 49.7246C30.6966 49.9452 30.5076 50.0426 30.216 50.0403C28.0902 50.028 25.9645 50.0348 23.8387 50.0303C23.7105 50.0303 23.526 50.1098 23.463 49.9619C23.4023 49.8198 23.5779 49.728 23.6619 49.6284C29.7309 42.4637 35.8023 35.3025 41.8736 28.1412C45.2014 24.2157 48.5305 20.2913 51.8517 16.3591C52.0495 16.1251 52.2451 16.0266 52.5533 16.0288C54.762 16.0434 56.9706 16.0356 59.1793 16.0389ZM40.6727 17.1653C41.3853 16.3356 42.0725 15.9493 43.1807 16.0053C45.2038 16.1072 47.2367 16.0322 49.2653 16.0367C49.4089 16.0378 49.5658 15.9851 49.7415 16.1217C49.4432 16.4744 49.1526 16.8215 48.8587 17.1653C42.752 24.2929 36.6443 31.4184 30.5387 38.546C25.9347 43.9204 21.334 49.2958 16.7366 54.6757C16.5499 54.894 16.3577 54.9926 16.0659 54.9915C13.4993 54.9803 10.9316 54.9847 8.36495 54.9825C8.24672 54.9825 8.07662 55.0452 8.01917 54.9321C7.94072 54.781 8.12302 54.6959 8.20589 54.5984C13.9402 47.847 19.8016 41.2086 25.6077 34.5198C30.6283 28.7346 35.6809 22.9762 40.6727 17.1653ZM28.266 16.0288C28.5566 16.0288 28.7488 16.1217 28.9355 16.3423C30.4901 18.1785 32.049 20.0114 33.6213 21.8308C33.8821 22.132 33.9307 22.3112 33.6257 22.6448C30.7288 25.8145 27.8516 29.0033 24.9801 32.1976C24.7348 32.4708 24.6199 32.4966 24.3602 32.201C19.7143 26.8995 15.0561 21.6103 10.399 16.3188C10.3449 16.2572 10.2952 16.1923 10.2211 16.1027C10.3968 15.9975 10.5361 16.0366 10.6686 16.0366C16.5344 16.0333 22.4002 16.0366 28.266 16.0288Z" fill="var(--fill-0, white)"/>
</g>
</svg>
