<svg preserveAspectRatio="none" width="100%" height="100%" overflow="visible" style="display: block;" viewBox="0 0 24 24" fill="none" xmlns="http://www.w3.org/2000/svg">
<g id="Frame">
<path id="Vector" d="M15.1486 9.3893C15.1486 9.3893 13.534 13.9404 12.7667 14.735C11.9994 15.5295 10.7333 15.5517 9.9387 14.7844C9.1441 14.0171 9.122 12.751 9.8893 11.9564C10.6566 11.1618 15.1486 9.3893 15.1486 9.3893Z" fill="var(--fill-0, #07D4AA)" stroke="var(--stroke-0, #07D4AA)" stroke-linejoin="round"/>
<path id="Vector_2" d="M19.4246 19.4246C21.3248 17.5245 22.5 14.8995 22.5 12C22.5 6.201 17.799 1.5 12 1.5C6.201 1.5 1.5 6.201 1.5 12C1.5 14.8995 2.67525 17.5245 4.57538 19.4246" stroke="var(--stroke-0, #07D4AA)" stroke-linecap="round" stroke-linejoin="round"/>
<path id="Vector_3" d="M12 2V4" stroke="var(--stroke-0, #07D4AA)" stroke-linecap="round" stroke-linejoin="round"/>
<path id="Vector_4" d="M19.4227 5.57105L17.8684 6.82965" stroke="var(--stroke-0, #07D4AA)" stroke-linecap="round" stroke-linejoin="round"/>
<path id="Vector_5" d="M21.2612 13.6164L19.3124 13.1665" stroke="var(--stroke-0, #07D4AA)" stroke-linecap="round" stroke-linejoin="round"/>
<path id="Vector_6" d="M2.73868 13.6164L4.68743 13.1665" stroke="var(--stroke-0, #07D4AA)" stroke-linecap="round" stroke-linejoin="round"/>
<path id="Vector_7" d="M4.57731 5.571L6.1316 6.82965" stroke="var(--stroke-0, #07D4AA)" stroke-linecap="round" stroke-linejoin="round"/>
</g>
</svg>
