<svg preserveAspectRatio="none" width="100%" height="100%" overflow="visible" style="display: block;" viewBox="0 0 129.861 34.7234" fill="none" xmlns="http://www.w3.org/2000/svg">
<path id="Ellipse 24" d="M64.9307 0.5C82.8299 0.500004 99.0168 2.44075 110.714 5.56836C116.566 7.13314 121.266 8.98762 124.491 11.0264C127.741 13.0806 129.361 15.2338 129.361 17.3613C129.361 19.4889 127.741 21.6429 124.491 23.6973C121.266 25.736 116.566 27.5905 110.714 29.1553C99.0168 32.2829 82.8299 34.2236 64.9307 34.2236C47.0312 34.2236 30.8436 32.2829 19.1465 29.1553C13.2947 27.5905 8.59508 25.7359 5.37012 23.6973C2.12039 21.6429 0.5 19.4889 0.5 17.3613C0.500201 15.2338 2.12059 13.0806 5.37012 11.0264C8.59507 8.98769 13.2946 7.1331 19.1465 5.56836C30.8436 2.44068 47.0312 0.5 64.9307 0.5Z" stroke="url(#paint0_linear_0_75)"/>
<defs>
<linearGradient id="paint0_linear_0_75" x1="48.1826" y1="38.2476" x2="49.6153" y2="-4.33175" gradientUnits="userSpaceOnUse">
<stop stop-color="#AFEAE5"/>
<stop offset="0.725962" stop-color="#B9B9B9" stop-opacity="0"/>
</linearGradient>
</defs>
</svg>
