<svg preserveAspectRatio="none" width="100%" height="100%" overflow="visible" style="display: block;" viewBox="0 0 88 88" fill="none" xmlns="http://www.w3.org/2000/svg">
<g id="Group 147">
<rect id="Rectangle 9" width="88" height="88" rx="16" fill="url(#paint0_linear_0_33)" fill-opacity="0.1"/>
<path id="Vector" fill-rule="evenodd" clip-rule="evenodd" d="M69.1268 23.039C69.2618 23.039 69.405 22.9976 69.5376 23.0782C69.5432 23.245 69.4082 23.3211 69.3226 23.4197C64.3512 29.1276 59.3806 34.8369 54.3909 40.5293C54.0779 40.8851 54.1838 41.0563 54.4303 41.3442C60.2168 48.0888 65.9962 54.8403 71.7747 61.5916C71.8603 61.6923 71.9909 61.7698 72 61.9355C71.8594 62.0373 71.7006 61.9881 71.5541 61.9881C65.6497 61.9902 59.7438 61.9873 53.8394 61.9984C53.5062 61.9996 53.3038 61.8884 53.0988 61.6399C50.4567 58.4412 47.8041 55.2512 45.1541 52.0592C44.7714 51.598 44.7723 51.5989 44.3673 52.0636C43.0135 53.6163 41.6529 55.1649 40.307 56.7246C40.117 56.9452 39.9244 57.0427 39.6276 57.0403C37.4623 57.0281 35.297 57.0351 33.132 57.0304C33.0014 57.0304 32.8135 57.1097 32.7494 56.9622C32.6873 56.82 32.8661 56.7281 32.9517 56.6283C39.1332 49.4639 45.317 42.3023 51.5009 35.1412C54.8903 31.2158 58.2809 27.2915 61.6635 23.3594C61.865 23.1254 62.0644 23.0268 62.3782 23.029C64.6276 23.0436 66.8773 23.0357 69.1268 23.039ZM50.2779 24.1652C51.0035 23.3357 51.7038 22.9493 52.8323 23.0053C54.8929 23.1072 56.9635 23.0323 59.0294 23.0367C59.1759 23.0379 59.3356 22.9854 59.5144 23.1219C59.2106 23.4745 58.9147 23.8216 58.6153 24.1652C52.3956 31.2929 46.1747 38.4185 39.9561 45.5461C35.2667 50.9203 30.5808 56.2959 25.8985 61.6756C25.7082 61.8939 25.5126 61.9925 25.2155 61.9914C22.6014 61.9802 19.986 61.9849 17.3719 61.9826C17.2515 61.9826 17.078 62.0452 17.0195 61.932C16.9397 61.781 17.1252 61.6958 17.2096 61.5986C23.0499 54.8471 29.02 48.2088 34.9338 41.5198C40.0473 35.7347 45.1935 29.9762 50.2779 24.1652ZM37.6414 23.029C37.9373 23.029 38.1329 23.122 38.3232 23.3425C39.9064 25.1787 41.4944 27.0114 43.0958 28.8308C43.3614 29.1319 43.4109 29.3113 43.1003 29.6449C40.1497 32.8146 37.2194 36.0034 34.2947 39.1977C34.0447 39.4709 33.9276 39.4967 33.6632 39.2012C28.9311 33.8996 24.1867 28.6102 19.4434 23.3188C19.3883 23.2572 19.3377 23.1922 19.2624 23.1028C19.4412 22.9976 19.583 23.0367 19.7179 23.0367C25.6923 23.0334 31.667 23.0369 37.6414 23.029Z" fill="var(--fill-0, #0E1E1B)" fill-opacity="0.8"/>
</g>
<defs>
<linearGradient id="paint0_linear_0_33" x1="44" y1="0" x2="44" y2="88" gradientUnits="userSpaceOnUse">
<stop stop-color="#3AE2C8"/>
<stop offset="1" stop-color="#C7EBF2"/>
</linearGradient>
</defs>
</svg>
